<svg id="Layer_1" data-name="Layer 1" xmlns="http://www.w3.org/2000/svg" viewBox="0 0 639.32 181.79"><path d="M144.8,91.29c0-25.54-6.73-44.94-12.8-57.22-1-.13-7.06-.91-15.52-1.71a131.74,131.74,0,0,1,14.46,59.47,117,117,0,0,1-14.69,57.24c8.09-1.15,14.1-2.28,15.82-2.61A124.07,124.07,0,0,0,144.8,91.29Z"/><path d="M108.72,150.07c2-3,16.06-25.57,16.06-58.24a127.67,127.67,0,0,0-15.44-60.09c-7.9-.64-17-1.19-25.65-1.29C84,40.58,85,77.59,85,91.21S84,141.82,83.69,152C92.13,151.8,100.94,151,108.72,150.07Z"/><path d="M77,91.29c0-13.64,1.06-50.72,1.35-60.85-8.56.09-17.45.61-25.25,1.24A127.79,127.79,0,0,0,37.68,91.83c0,33.13,14.45,55.83,16.13,58.35A239.39,239.39,0,0,0,78.39,152C78.09,141.86,77,104.89,77,91.29Z"/><path d="M46.26,149.19A117.21,117.21,0,0,1,31.51,91.83,131.59,131.59,0,0,1,46,32.3c-8.71.82-15,1.63-16,1.77C24,46.35,17.23,65.74,17.23,91.29A124,124,0,0,0,30,146.44C31.53,146.76,37.79,148,46.26,149.19Z"/><path d="M80.66,157.14c-22.56,0-44.92-5-48-5.67a76.62,76.62,0,0,0,7.13,10.82S57,169.92,81,169.92s41.28-7.63,41.28-7.63a76.34,76.34,0,0,0,7.12-10.81C125.92,152.22,103.05,157.14,80.66,157.14Z"/><path d="M80.8,25.28A379.39,379.39,0,0,1,129.32,29a70.91,70.91,0,0,0-6.8-10.26S105.15,13.45,81,13.45s-41.5,5.26-41.5,5.26A70.91,70.91,0,0,0,32.71,29,367.55,367.55,0,0,1,80.8,25.28Z"/><path d="M170.78,132.21V56.52h27.5q12.36,0,20.68,5.07a32,32,0,0,1,12.47,13.64,43.08,43.08,0,0,1,4.16,19,41.7,41.7,0,0,1-4.59,20,32.46,32.46,0,0,1-12.95,13.22q-8.37,4.68-19.77,4.69Zm50-37.95a29.87,29.87,0,0,0-2.66-13,20.44,20.44,0,0,0-7.68-8.74,22.37,22.37,0,0,0-12.15-3.15H185.49v49.89h12.79A21.66,21.66,0,0,0,210.59,116a21.11,21.11,0,0,0,7.57-9A30.17,30.17,0,0,0,220.77,94.26Z"/><path d="M278.87,88.71a28.56,28.56,0,0,0-11.73,2.51,15.25,15.25,0,0,0-7.46,7.09v33.9H245.5V76.88h13.11V88.29a25,25,0,0,1,7.62-9.06A18.73,18.73,0,0,1,276,75.6a9.53,9.53,0,0,0,1.7.06,2.55,2.55,0,0,1,1.18.16Z"/><path d="M282.6,115.89a15.09,15.09,0,0,1,3-9.37,20.08,20.08,0,0,1,8.43-6.27A32.23,32.23,0,0,1,306.58,98a49.65,49.65,0,0,1,7.14.53,24.73,24.73,0,0,1,6.29,1.71V97.15q0-5.13-3.09-8t-9.27-2.83A24.34,24.34,0,0,0,298.8,88a46.79,46.79,0,0,0-8.74,4.58l-4.48-9.27a40.53,40.53,0,0,1,11.25-5.49A42,42,0,0,1,309,76q11.94,0,18.6,5.83t6.67,16.87v17.55a4.91,4.91,0,0,0,.79,3.15,3.9,3.9,0,0,0,2.62,1.16v11.62c-1.28.21-2.44.39-3.47.53a11.52,11.52,0,0,1-2.61.11c-2.84,0-5-.63-6.45-1.87a7.37,7.37,0,0,1-2.61-4.64l-.32-2.87a25.33,25.33,0,0,1-9.17,7.24A25.7,25.7,0,0,1,302,133.27,21.21,21.21,0,0,1,292,131a17.85,17.85,0,0,1-6.93-6.27A16.09,16.09,0,0,1,282.6,115.89Zm34.75,2.68a9.18,9.18,0,0,0,1.92-2.39,5.07,5.07,0,0,0,.74-2.29v-5.51a29.36,29.36,0,0,0-5.54-1.61,30.23,30.23,0,0,0-5.65-.57,16.36,16.36,0,0,0-9.12,2.34,7.09,7.09,0,0,0-3.57,6.18,7.49,7.49,0,0,0,1.18,4,8.31,8.31,0,0,0,3.35,3.07,11.58,11.58,0,0,0,5.39,1.14,16.56,16.56,0,0,0,6.29-1.25A15.35,15.35,0,0,0,317.35,118.57Z"/><path d="M346.66,143.08q1.92.42,3.57.69c1.1.18,2,.3,2.83.37a5.4,5.4,0,0,0,3.35-1,10.2,10.2,0,0,0,2.62-3.58,47.71,47.71,0,0,0,2.66-7.2L339.63,76.88h14.81l15,41,13.22-41h13.64l-23.45,66.49A20.41,20.41,0,0,1,369,150.1a18.66,18.66,0,0,1-6.45,4.77,20.92,20.92,0,0,1-8.74,1.75,21.77,21.77,0,0,1-3.41-.27,20.36,20.36,0,0,1-3.73-1Z"/><path d="M490.88,132.21H476.6V101.32q0-6.61-2.29-9.67a7.49,7.49,0,0,0-6.34-3,12.1,12.1,0,0,0-8,3.2,17.68,17.68,0,0,0-5.33,8.25v32.15H440.25V101.32q0-6.61-2.24-9.67a7.35,7.35,0,0,0-6.29-3,12.53,12.53,0,0,0-8,3.12,16.79,16.79,0,0,0-5.44,8.22v32.26H404.11V76.88H417V87.2a21.92,21.92,0,0,1,8.58-8.27A25.38,25.38,0,0,1,437.8,76q6.93,0,10.82,3.37a14.94,14.94,0,0,1,4.95,8.33A23.08,23.08,0,0,1,474.25,76a16.82,16.82,0,0,1,8.37,1.85,13.33,13.33,0,0,1,5.07,5,21.25,21.25,0,0,1,2.5,7,44.69,44.69,0,0,1,.69,7.8Z"/><path d="M499.52,115.89a15,15,0,0,1,3-9.37,20,20,0,0,1,8.42-6.27A32.23,32.23,0,0,1,523.5,98a49.65,49.65,0,0,1,7.14.53,24.62,24.62,0,0,1,6.29,1.71V97.15q0-5.13-3.09-8t-9.27-2.83a24.34,24.34,0,0,0-8.85,1.6A46.79,46.79,0,0,0,507,92.55l-4.48-9.27a40.53,40.53,0,0,1,11.25-5.49A42,42,0,0,1,526,76q11.94,0,18.6,5.83t6.67,16.87v17.55a4.85,4.85,0,0,0,.8,3.15,3.85,3.85,0,0,0,2.61,1.16v11.62c-1.28.21-2.44.39-3.47.53a11.52,11.52,0,0,1-2.61.11c-2.84,0-5-.63-6.45-1.87a7.41,7.41,0,0,1-2.61-4.64l-.32-2.87a25.33,25.33,0,0,1-9.17,7.24,25.7,25.7,0,0,1-11.08,2.56A21.21,21.21,0,0,1,509,131a17.85,17.85,0,0,1-6.93-6.27A16.09,16.09,0,0,1,499.52,115.89Zm34.75,2.68a9.18,9.18,0,0,0,1.92-2.39,5.07,5.07,0,0,0,.74-2.29v-5.51a29.36,29.36,0,0,0-5.54-1.61,30.14,30.14,0,0,0-5.65-.57,16.3,16.3,0,0,0-9.11,2.34,7.07,7.07,0,0,0-3.57,6.18,7.57,7.57,0,0,0,1.17,4,8.28,8.28,0,0,0,3.36,3.07,11.51,11.51,0,0,0,5.38,1.14,16.52,16.52,0,0,0,6.29-1.25A15.35,15.35,0,0,0,534.27,118.57Z"/><path d="M616.45,132.21H602.17V101.32c0-4.41-.77-7.63-2.29-9.67a7.72,7.72,0,0,0-6.56-3,12.88,12.88,0,0,0-5.81,1.46,17.42,17.42,0,0,0-5.22,4,18.69,18.69,0,0,0-3.57,5.88v32.26H564.54V76.88h12.9V87.2a20.18,20.18,0,0,1,5.43-6,26.47,26.47,0,0,1,7.57-3.79A29.9,29.9,0,0,1,599.61,76a17.71,17.71,0,0,1,8.58,1.85,12.59,12.59,0,0,1,5.12,5,22.6,22.6,0,0,1,2.45,7,43.87,43.87,0,0,1,.69,7.75Z"/></svg>